<svg xmlns="http://www.w3.org/2000/svg" viewBox="0 0 184.57 93.69"><defs><style>.cls-1{fill:#fdfdfd;}</style></defs><g id="Warstwa_2" data-name="Warstwa 2"><g id="Layer_1" data-name="Layer 1"><path class="cls-1" d="M179.34,0q-62,0-124,0c-3.43,0-4.9,1.51-4.9,5q0,11.27,0,22.53a11.54,11.54,0,0,0,0,1.44,4.11,4.11,0,0,0,4.1,3.76,3.93,3.93,0,0,0,3.8-4c.08-4.32,0-8.65,0-13V12.92L93.5,44,58.44,79V77.42c0-7.69,0-15.38,0-23.06,0-2.85-1.53-4.62-3.91-4.66s-4,1.76-4.06,4.71c0,1.31,0,2.62,0,4.12H31.4a13,13,0,0,0-2.33.18,3.76,3.76,0,0,0-3.2,4.11c.15,2.34,1.88,3.72,4.84,3.73,5.88,0,11.77,0,17.66,0h2.09v2.15q0,9.65,0,19.28c0,4.38,1.29,5.66,5.72,5.66q61.46,0,122.9,0c2.45,0,4.33-.64,5.49-2.87V3.21C183.65.81,181.82,0,179.34,0ZM64.76,85.51,100.32,50l12.92,11.44c3.67,3.25,4.79,3.26,8.47.13,4.48-3.82,9-7.62,13.28-11.27l35.22,35.21Zm111.75-6c-11.68-11.68-23.22-23.23-34.87-34.87l12-10.17,13.47-11.42a4.61,4.61,0,0,0,2-3.81,3.88,3.88,0,0,0-5.55-3.4,9.62,9.62,0,0,0-1.91,1.33q-21,17.82-42.07,35.67c-.63.54-1.28,1.07-2,1.7L65.17,8.18H176.51Z"/><path class="cls-1" d="M5.52,45.67H70.06c3.54,0,5.62-1.46,5.49-4-.1-2.09-1.22-4.08-5.5-4-10.69.09-21.39,0-32.08,0H5.52c-3.58,0-5.52,1.43-5.52,4S2,45.67,5.52,45.67Z"/><path class="cls-1" d="M11.72,23.56c4.8.06,9.6,0,14.41,0h5.22c3.12,0,6.24,0,9.36,0,2.39,0,3.8-1,4.36-2.77.91-2.87-1.07-5.21-4.54-5.25-4.69,0-9.37,0-14,0-4.87,0-9.73,0-14.59,0-2.63,0-4.26,1.11-4.7,3.05C6.54,21.44,8.38,23.52,11.72,23.56Z"/><path class="cls-1" d="M32.58,75.43c-4.68-.06-9.36,0-14,0H5.39C2,75.42.05,76.84,0,79.39s1.93,4.08,5.45,4.08q13.24,0,26.47,0a10.55,10.55,0,0,0,2.32-.22,3.57,3.57,0,0,0,2.92-3C37.68,77.44,35.85,75.47,32.58,75.43Z"/></g></g></svg>