<svg xmlns="http://www.w3.org/2000/svg" viewBox="0 0 332.48 168.28"><defs><style>.cls-1{fill:#fff;}.cls-2{fill:#f00003;}</style></defs><g id="Warstwa_2" data-name="Warstwa 2"><g id="Layer_1" data-name="Layer 1"><path class="cls-1" d="M136.28,85.29c-3.25-1.8-4.72-2.55-4.72-3.8,0-1.52,1.52-2.34,4.94-2.28a18.38,18.38,0,0,1,7.43,1.68l.22-.11,1.14-8.46a23.72,23.72,0,0,0-9.17-1.57c-7.54,0-14.7,3.63-14.7,12.15,0,5,3.25,7.65,7,9.66,3.52,2,4.45,2.92,4.45,4.5s-1.31,2.82-4.34,2.82a14.4,14.4,0,0,1-9-3.09l-.21,0-1.41,9a20.43,20.43,0,0,0,10.52,2.38c8.63,0,14.59-5.15,14.59-13.13C143.06,89.84,139.76,87.18,136.28,85.29Z"/><path class="cls-1" d="M157.09,97.17c1.19.1,2.39.16,3.53.16,8.73,0,16.27-4.88,16.27-15.63,0-8.08-5.86-10.74-14-10.79a79.16,79.16,0,0,0-12.2.76l-5.1,36h10Zm2.49-17.53a17.86,17.86,0,0,1,2.77-.16c2.44,0,4.29,1.25,4.29,3.85,0,4.07-2.34,5.7-6.13,5.7-.6,0-1.36-.06-2.28-.11Z"/><polygon class="cls-1" points="200.52 107.64 201.6 99.61 187.72 99.61 188.64 93.21 197.78 93.21 198.86 85.39 189.78 85.39 190.59 79.64 204.1 79.64 205.24 71.67 181.69 71.67 176.59 107.64 200.52 107.64"/><polygon class="cls-1" points="202.99 98.25 203.26 98.36 206.79 96.24 205.16 107.64 227.84 107.64 228.97 99.34 216.33 99.34 217.74 89.73 222.97 86.48 223.95 79.65 223.73 79.65 218.72 82.68 220.29 71.67 210.26 71.67 207.76 89.19 203.91 91.47 202.99 98.25"/><polygon class="cls-1" points="282.96 71.67 272.81 71.67 267.98 107.64 278.07 107.64 282.96 71.67"/><path class="cls-1" d="M282.33,99.17l-1.24,8.41a22.93,22.93,0,0,0,3.3.22c9.28,0,14.54-5.42,16.17-16.6l1.84-12.72h0l5.44-6.82H293.29l-3,20.56c-.6,4-2.12,7-6.19,7a8.8,8.8,0,0,1-1.57-.16Z"/><polygon class="cls-1" points="156.03 131.64 148.76 111.71 145.82 111.71 140.13 140.66 143.24 140.66 147.66 117.76 147.75 117.76 154.63 136.11 156.2 136.11 167.94 117.97 168.03 117.97 166.1 140.66 169.17 140.66 171.62 111.71 168.77 111.71 156.03 131.64"/><path class="cls-1" d="M188.11,111.19,172,140.66h3.29l4.16-7.71h12.74l2,7.71h3.46l-8.19-29.47Zm-7.31,19.18,6.7-12.44.57-1.23.21,1.23,3.2,12.44Z"/><path class="cls-1" d="M221.29,118.85c0-5.17-3.55-7.44-9-7.44-3.33,0-5.08.08-7.18.26l-4.08,29h3.24l1.58-11.39H211l5.12,11.39h3.42l0-.13-5.43-11.78C218.05,127.57,221.29,124.41,221.29,118.85Zm-11.48,7.8h-3.54l1.7-12.27a41.1,41.1,0,0,1,4.16-.17c4,0,5.79,1.93,5.79,5.21C217.92,124.28,214.24,126.65,209.81,126.65Z"/><polygon class="cls-1" points="246.58 111.71 225.95 111.71 225.6 114.43 242.03 114.43 221.92 139.48 222.14 140.66 243.16 140.66 243.51 137.95 226.52 137.95 246.76 112.85 246.58 111.71"/><polygon class="cls-1" points="247.66 140.66 264.43 140.66 264.82 137.64 251.38 137.64 252.82 127.22 264.96 127.22 265.39 124.24 253.26 124.24 254.58 114.73 267.54 114.73 267.94 111.71 251.69 111.71 247.66 140.66"/><polygon class="cls-1" points="289.94 134.14 289.81 134.14 275.14 111.49 273.74 111.49 269.67 140.66 272.77 140.66 275.97 118.19 276.06 118.19 290.82 140.88 292.13 140.88 296.21 111.71 293.1 111.71 289.94 134.14"/><polygon class="cls-1" points="303.46 111.71 299.43 140.66 302.67 140.66 306.74 111.71 303.46 111.71"/><path class="cls-1" d="M322.44,111.19l-16.12,29.47h3.29l4.16-7.71h12.75l2,7.71H332l-8.19-29.47Zm-7.31,19.18,6.7-12.44.57-1.23.22,1.23,3.19,12.44Z"/><polygon class="cls-1" points="241.16 101.09 242.89 89.52 243.05 89.52 257.65 107.64 262.04 107.64 267.25 71.34 260.94 71.34 257.65 71.34 251.51 71.34 256.72 77.87 255.15 88.87 254.99 88.87 240.23 71.34 235.73 71.34 230.58 107.64 236.99 107.64 240.18 107.64 245.63 107.64 241.16 101.09"/><polygon class="cls-2" points="186.14 58.19 99.58 69.17 88.73 43.96 78.48 71.19 47.63 75.35 71.83 92.29 65.13 117.51 88.31 102.12 137.24 145.76 85.98 121.25 31.1 167.71 56.8 98.08 0 66.95 67.78 59.63 88.31 0 108.83 54.43 186.14 58.19"/><path class="cls-1" d="M78.31,153.17l-5.2,11.38H72L70.35,155l0-.42-.18.4-4.42,9.55H64.58l-2-11.38,0,0h1.22l1.54,9.48,0,.4.15-.4,4.38-9.48h1.23l1.66,9.46,0,.44.15-.44,4.18-9.46h1.13Z"/><path class="cls-1" d="M96.48,153.17l-5.19,11.38H90.18L88.52,155l0-.42-.18.4-4.42,9.55H82.76l-2-11.38,0,0H82l1.55,9.48,0,.4.15-.4,4.38-9.48H89.3L91,162.58l0,.44.15-.44,4.18-9.46h1.13Z"/><path class="cls-1" d="M114.66,153.17l-5.2,11.38h-1.1L106.7,155l0-.42-.17.4-4.42,9.55h-1.13l-2-11.38,0,0h1.21l1.55,9.48,0,.4.16-.4,4.37-9.48h1.24l1.66,9.46,0,.44.16-.44,4.18-9.46h1.12Z"/><path class="cls-1" d="M115.52,163.84a.92.92,0,0,1,1-1,.77.77,0,0,1,.8.82.9.9,0,0,1-.93.93A.77.77,0,0,1,115.52,163.84Z"/><path class="cls-1" d="M120.87,164l.18-1.19.07,0a5.32,5.32,0,0,0,3.53,1c2,0,3.36-.75,3.36-2.32,0-1.24-.93-1.68-2.76-2.25s-3.1-1.28-3.1-2.94c0-2.12,1.93-3.36,4.67-3.36a6.91,6.91,0,0,1,2.94.55l-.16,1.08,0,0a6.31,6.31,0,0,0-2.87-.6c-1.9,0-3.3.75-3.3,2.16,0,1.09,1,1.53,2.63,2,2,.64,3.21,1.35,3.21,3,0,2.44-2,3.7-4.8,3.7A6.07,6.07,0,0,1,120.87,164Z"/><path class="cls-1" d="M143.62,157.48c0,4.57-2.67,7.33-6.21,7.33a6.27,6.27,0,0,1-3.21-.77l-.57,4.16h-1.22l2.13-15.08h1l-.11,1.62a4.58,4.58,0,0,1,3.89-1.88C141.79,152.86,143.62,154.42,143.62,157.48Zm-1.26.24c0-2.63-1.46-3.78-3.36-3.78a4,4,0,0,0-3.82,3.16l-.8,5.79a5.42,5.42,0,0,0,3.07.84C140.26,163.73,142.36,161.43,142.36,157.72Z"/><path class="cls-1" d="M157.15,157.12a8.53,8.53,0,0,1-.22,1.81h-8.55a4.5,4.5,0,0,0,0,.65c0,2.76,1.68,4.17,3.89,4.17a5.58,5.58,0,0,0,3.58-1.08l.05,0-.16,1.15a5.92,5.92,0,0,1-3.6,1c-2.81,0-5-1.65-5-5.12,0-4.18,2.68-6.83,5.77-6.83A4,4,0,0,1,157.15,157.12Zm-1.21.82c0-.24,0-.51,0-.75a2.94,2.94,0,0,0-3.23-3.25c-2,0-3.71,1.5-4.24,4Z"/><path class="cls-1" d="M160.69,162.45l1.92-13.64h1.2L162,162.05c-.15,1.15.11,1.57,1,1.57a1.63,1.63,0,0,0,.87-.26l.06,0-.15,1.06a2.54,2.54,0,0,1-1.15.29C161.15,164.73,160.47,164,160.69,162.45Z"/><path class="cls-1" d="M177.49,156.72a6.91,6.91,0,0,1-.09,1.26l-.9,6.57h-1.22l.86-6.26a7.33,7.33,0,0,0,.11-1.3,2.69,2.69,0,0,0-2.89-3,4,4,0,0,0-3.91,3.3l-1,7.27h-1.22l1.62-11.43h1l-.13,1.95a4.51,4.51,0,0,1,4-2.21A3.53,3.53,0,0,1,177.49,156.72Z"/><path class="cls-1" d="M183,153.12h1.22l-1.62,11.43h-1.21Zm.22-3.29a.89.89,0,0,1,.91-.93.78.78,0,0,1,.82.8.89.89,0,0,1-.91.92A.77.77,0,0,1,183.24,149.83Z"/><path class="cls-1" d="M184.53,168.2l.17-1.06.05,0a2.47,2.47,0,0,0,.66.07c1.68,0,2.45-1.15,2.72-3l1.55-11h1.19l-1.57,11.27c-.35,2.55-1.64,3.89-3.85,3.89A5.05,5.05,0,0,1,184.53,168.2Zm5.37-18.37a.88.88,0,0,1,.9-.93.77.77,0,0,1,.82.8.88.88,0,0,1-.91.92A.77.77,0,0,1,189.9,149.83Z"/><path class="cls-1" d="M195.05,157.63h5.61l-.13,1h-5.64Z"/><path class="cls-1" d="M221.64,156.59a8.32,8.32,0,0,1-.09,1.39l-.9,6.57h-1.22l.86-6.26a9.11,9.11,0,0,0,.11-1.59,2.45,2.45,0,0,0-2.63-2.72c-1.79,0-3.31,1.28-3.62,3.56,0,.16,0,.31-.05.44l-.92,6.57H212l.88-6.26a9.49,9.49,0,0,0,.09-1.59,2.42,2.42,0,0,0-2.58-2.72,3.68,3.68,0,0,0-3.63,3.3l-1,7.27h-1.21l1.61-11.43h1l-.11,1.81a4.08,4.08,0,0,1,3.71-2.07,3.2,3.2,0,0,1,3.4,2.74,4.17,4.17,0,0,1,4.05-2.74C219.94,152.86,221.64,153.87,221.64,156.59Z"/><path class="cls-1" d="M236.52,163.29l-.15,1a2.23,2.23,0,0,1-1.24.37c-1.22,0-1.57-.75-1.39-2a4.44,4.44,0,0,1-3.94,2.07c-2.63,0-4.29-1.76-4.29-4.48,0-4.75,2.79-7.47,6.11-7.47A5.18,5.18,0,0,1,235,154l.2-.86h1l-1.31,9.13c-.13,1,.07,1.35.71,1.35a1.23,1.23,0,0,0,.82-.33Zm-1.81-7.91.07-.27a4.29,4.29,0,0,0-3.14-1.17c-2.61,0-4.84,2.16-4.84,6.19,0,2.21,1.23,3.6,3.27,3.6a4,4,0,0,0,3.91-3.25Z"/><path class="cls-1" d="M247.14,153.1l-.16,1.08,0,0a2.9,2.9,0,0,0-1.11-.22c-1.28,0-2.74.33-3.56,3.36l-1,7.21H240l1.61-11.43h1l-.11,1.75a3.66,3.66,0,0,1,3.4-2A2.75,2.75,0,0,1,247.14,153.1Z"/><path class="cls-1" d="M250,163.51h7.44l-.15,1h-8.93l-.07-.55,8.51-9.84h-7l.14-1h8.6l0,.55Z"/><path class="cls-1" d="M271,157.12a8.53,8.53,0,0,1-.22,1.81h-8.55c0,.2,0,.42,0,.65,0,2.76,1.68,4.17,3.89,4.17a5.61,5.61,0,0,0,3.58-1.08l0,0-.15,1.15a6,6,0,0,1-3.61,1c-2.8,0-5-1.65-5-5.12,0-4.18,2.67-6.83,5.77-6.83A4,4,0,0,1,271,157.12Zm-1.21.82c0-.24,0-.51,0-.75a2.94,2.94,0,0,0-3.23-3.25c-2,0-3.71,1.5-4.24,4Z"/><path class="cls-1" d="M284.59,156.72a6.91,6.91,0,0,1-.09,1.26l-.91,6.57h-1.21l.86-6.26a7.33,7.33,0,0,0,.11-1.3,2.7,2.7,0,0,0-2.9-3,4,4,0,0,0-3.91,3.3l-1,7.27h-1.22l1.61-11.43h1l-.13,1.95a4.51,4.51,0,0,1,4-2.21A3.53,3.53,0,0,1,284.59,156.72Z"/><path class="cls-1" d="M290.12,153.12h1.21l-1.61,11.43H288.5Zm.22-3.29a.88.88,0,0,1,.9-.93.77.77,0,0,1,.82.8.88.88,0,0,1-.9.92A.77.77,0,0,1,290.34,149.83Z"/><path class="cls-1" d="M305.77,163.29l-.16,1a2.2,2.2,0,0,1-1.23.37c-1.22,0-1.57-.75-1.4-2a4.41,4.41,0,0,1-3.93,2.07c-2.63,0-4.29-1.76-4.29-4.48,0-4.75,2.79-7.47,6.1-7.47a5.19,5.19,0,0,1,3.43,1.12l.2-.86h1l-1.3,9.13c-.14,1,.06,1.35.7,1.35a1.21,1.21,0,0,0,.82-.33ZM304,155.38l.06-.27a4.29,4.29,0,0,0-3.14-1.17c-2.6,0-4.84,2.16-4.84,6.19,0,2.21,1.24,3.6,3.27,3.6a4,4,0,0,0,3.92-3.25Z"/><path class="cls-1" d="M308.8,163.84a.92.92,0,0,1,.95-1,.77.77,0,0,1,.8.82.9.9,0,0,1-.93.93A.77.77,0,0,1,308.8,163.84Z"/><path class="cls-1" d="M325.6,157.48c0,4.57-2.67,7.33-6.21,7.33a6.27,6.27,0,0,1-3.21-.77l-.57,4.16h-1.22l2.13-15.08h1l-.11,1.62a4.58,4.58,0,0,1,3.89-1.88C323.77,152.86,325.6,154.42,325.6,157.48Zm-1.26.24c0-2.63-1.46-3.78-3.36-3.78a4,4,0,0,0-3.82,3.16l-.8,5.79a5.42,5.42,0,0,0,3.07.84C322.24,163.73,324.34,161.43,324.34,157.72Z"/><path class="cls-1" d="M329.32,162.45l1.92-13.64h1.19l-1.85,13.24c-.16,1.15.11,1.57,1,1.57a1.63,1.63,0,0,0,.86-.26l.07,0-.16,1.06a2.51,2.51,0,0,1-1.15.29C329.78,164.73,329.1,164,329.32,162.45Z"/></g></g></svg>