<svg xmlns="http://www.w3.org/2000/svg" viewBox="0 0 301.85 152.78"><defs><style>.cls-1{fill:#fff;}</style></defs><g id="Warstwa_2" data-name="Warstwa 2"><g id="Layer_1" data-name="Layer 1"><path class="cls-1" d="M123.93,71.91a16.66,16.66,0,0,1,6.74,1.53l.2-.1,1-7.68a21.67,21.67,0,0,0-8.33-1.43c-6.84,0-13.35,3.3-13.35,11,0,4.53,3,6.95,6.36,8.77,3.2,1.77,4,2.66,4,4.09s-1.19,2.56-3.94,2.56a13,13,0,0,1-8.13-2.81l-.2,0-1.28,8.18a18.6,18.6,0,0,0,9.56,2.16c7.83,0,13.25-4.68,13.25-11.92,0-4.77-3-7.19-6.16-8.91-3-1.63-4.29-2.32-4.29-3.45C119.44,72.6,120.82,71.86,123.93,71.91Z"/><path class="cls-1" d="M147.89,64.38a71.79,71.79,0,0,0-11.08.69l-4.63,32.65h9.06l1.38-9.5c1.08.09,2.17.14,3.2.14,7.93,0,14.78-4.43,14.78-14.18C160.6,66.84,155.28,64.43,147.89,64.38Zm-2.17,16.45c-.54,0-1.23,0-2.07-.1l1.23-8.42a16.16,16.16,0,0,1,2.52-.15c2.21,0,3.89,1.13,3.89,3.5C151.29,79.35,149.17,80.83,145.72,80.83Z"/><polygon class="cls-1" points="160.33 97.72 182.05 97.72 183.03 90.43 170.42 90.43 171.26 84.62 179.56 84.62 180.54 77.53 172.3 77.53 173.03 72.31 185.3 72.31 186.33 65.07 164.96 65.07 160.33 97.72"/><polygon class="cls-1" points="184.29 89.2 184.54 89.3 187.74 87.38 186.26 97.72 206.85 97.72 207.88 90.19 196.41 90.19 197.69 81.47 202.43 78.52 203.32 72.31 203.12 72.31 198.57 75.07 200 65.07 190.89 65.07 188.62 80.97 185.13 83.04 184.29 89.2"/><polygon class="cls-1" points="256.89 65.07 247.68 65.07 243.3 97.72 252.46 97.72 256.89 65.07"/><path class="cls-1" d="M256.33,90l-1.14,7.63a21.7,21.7,0,0,0,3,.2c8.42,0,13.2-4.93,14.68-15.07l1.66-11.55h0l4.95-6.19H266.28l-2.71,18.66c-.55,3.65-1.92,6.36-5.62,6.36a7.4,7.4,0,0,1-1.43-.15Z"/><polygon class="cls-1" points="153.58 127.7 155.81 101.42 153.23 101.42 141.66 119.51 135.05 101.42 132.39 101.42 127.22 127.7 130.04 127.7 134.06 106.91 134.14 106.91 140.38 123.57 141.81 123.57 152.47 107.11 152.55 107.11 150.8 127.7 153.58 127.7"/><path class="cls-1" d="M172,100.94h-1.2l-14.63,26.77h3l3.78-7h11.57l1.79,7h3.14Zm-7.84,17.42,6.09-11.29.51-1.12.2,1.12,2.9,11.29Z"/><path class="cls-1" d="M191,117.37h.52l4.65,10.34h3.1l0-.12-4.93-10.7a8.81,8.81,0,0,0,6.48-9c0-4.69-3.22-6.76-8.15-6.76-3,0-4.61.08-6.52.24l-3.7,26.33h2.95l1.43-10.34Zm-2.22-13.52a34.41,34.41,0,0,1,3.77-.16c3.58,0,5.25,1.75,5.25,4.73,0,4.41-3.34,6.56-7.35,6.56h-3.22Z"/><polygon class="cls-1" points="221.08 125.24 205.66 125.24 224.03 102.46 223.87 101.42 205.14 101.42 204.82 103.89 219.73 103.89 201.48 126.63 201.68 127.7 220.77 127.7 221.08 125.24"/><polygon class="cls-1" points="240.43 124.96 228.22 124.96 229.53 115.5 240.55 115.5 240.95 112.79 229.93 112.79 231.13 104.17 242.9 104.17 243.25 101.42 228.5 101.42 224.84 127.7 240.07 127.7 240.43 124.96"/><polygon class="cls-1" points="266.1 101.42 263.24 121.78 263.12 121.78 249.8 101.22 248.52 101.22 244.82 127.7 247.65 127.7 250.55 107.31 250.63 107.31 264.03 127.9 265.22 127.9 268.92 101.42 266.1 101.42"/><polygon class="cls-1" points="274.79 127.7 278.49 101.42 275.5 101.42 271.85 127.7 274.79 127.7"/><path class="cls-1" d="M293.93,100.94h-1.19l-14.63,26.77h3l3.78-7h11.57l1.79,7h3.14Zm-7.83,17.42,6.08-11.29.52-1.12.2,1.12,2.9,11.29Z"/><polygon class="cls-1" points="218.05 97.72 223 97.72 218.94 91.78 220.52 81.27 220.66 81.27 233.91 97.72 237.9 97.72 242.63 64.77 236.9 64.77 233.91 64.77 228.34 64.77 233.07 70.7 231.65 80.68 231.5 80.68 218.1 64.77 214.02 64.77 209.34 97.72 215.16 97.72 218.05 97.72"/><polygon class="cls-1" points="78.06 110.08 124.59 132.33 80.17 92.72 59.13 106.68 65.21 83.79 43.24 68.41 71.25 64.64 80.56 39.91 90.41 62.8 168.99 52.83 98.8 49.41 80.17 0 61.54 54.14 0 60.78 51.56 89.04 28.23 152.26 78.06 110.08"/><polygon class="cls-1" points="70.05 139.02 66.26 147.61 66.12 148.01 66.08 147.61 64.57 139.02 63.45 139.02 59.48 147.63 59.34 147.99 59.31 147.63 57.91 139.02 56.81 139.02 56.79 139.06 58.63 149.39 59.66 149.39 63.67 140.72 63.83 140.36 63.87 140.74 65.38 149.39 66.38 149.39 71.09 139.06 71.08 139.02 70.05 139.02"/><polygon class="cls-1" points="86.55 139.02 82.76 147.61 82.62 148.01 82.58 147.61 81.07 139.02 79.95 139.02 75.97 147.63 75.83 147.99 75.81 147.63 74.41 139.02 73.31 139.02 73.29 139.06 75.13 149.39 76.16 149.39 80.17 140.72 80.33 140.36 80.37 140.74 81.88 149.39 82.88 149.39 87.59 139.06 87.57 139.02 86.55 139.02"/><polygon class="cls-1" points="103.05 139.02 99.26 147.61 99.12 148.01 99.08 147.61 97.57 139.02 96.45 139.02 92.47 147.63 92.33 147.99 92.31 147.63 90.91 139.02 89.81 139.02 89.79 139.06 91.63 149.39 92.66 149.39 96.67 140.72 96.83 140.36 96.87 140.74 98.38 149.39 99.38 149.39 104.09 139.06 104.07 139.02 103.05 139.02"/><path class="cls-1" d="M105.74,147.89a.83.83,0,0,0-.86.86.69.69,0,0,0,.74.72.81.81,0,0,0,.85-.84A.69.69,0,0,0,105.74,147.89Z"/><path class="cls-1" d="M110.9,141.85c0,1.5,1.19,2.14,2.81,2.67s2.51.92,2.51,2c0,1.43-1.24,2.11-3,2.11a4.81,4.81,0,0,1-3.21-.92l-.06,0-.16,1.08a5.53,5.53,0,0,0,3.23.8c2.53,0,4.35-1.14,4.35-3.35,0-1.5-1.08-2.15-2.91-2.73-1.5-.46-2.38-.86-2.38-1.84,0-1.29,1.26-2,3-2a5.81,5.81,0,0,1,2.61.54l0,0,.14-1a6.26,6.26,0,0,0-2.67-.5C112.65,138.8,110.9,139.92,110.9,141.85Z"/><path class="cls-1" d="M126.5,138.78a4.15,4.15,0,0,0-3.53,1.7l.1-1.46h-.93l-1.92,13.68h1.1l.52-3.77a5.69,5.69,0,0,0,2.91.7c3.21,0,5.64-2.51,5.64-6.66C130.39,140.2,128.73,138.78,126.5,138.78Zm-1.71,9.87a5,5,0,0,1-2.79-.76l.73-5.26a3.62,3.62,0,0,1,3.47-2.87c1.72,0,3,1,3,3.43C129.25,146.56,127.34,148.65,124.79,148.65Z"/><path class="cls-1" d="M138.78,138.78c-2.81,0-5.24,2.4-5.24,6.2a4.26,4.26,0,0,0,4.56,4.65,5.41,5.41,0,0,0,3.27-.88l.14-1,0,0a5.13,5.13,0,0,1-3.25,1c-2,0-3.53-1.29-3.53-3.79a5.62,5.62,0,0,1,0-.59h7.76a7.09,7.09,0,0,0,.21-1.64A3.62,3.62,0,0,0,138.78,138.78Zm2.79,4.61h-6.74c.48-2.27,2-3.63,3.85-3.63a2.67,2.67,0,0,1,2.93,3C141.61,142.93,141.59,143.17,141.57,143.39Z"/><path class="cls-1" d="M147.92,148.55c-.79,0-1-.38-.89-1.43l1.69-12h-1.09l-1.74,12.39c-.2,1.4.42,2.06,1.68,2.06a2.29,2.29,0,0,0,1.05-.26l.14-1-.06,0A1.41,1.41,0,0,1,147.92,148.55Z"/><path class="cls-1" d="M157.71,138.78a4.1,4.1,0,0,0-3.65,2l.12-1.76h-.9l-1.47,10.37h1.1l.93-6.6a3.6,3.6,0,0,1,3.55-3,2.45,2.45,0,0,1,2.63,2.73,7,7,0,0,1-.1,1.18l-.78,5.68h1.1l.82-6a6.65,6.65,0,0,0,.08-1.14A3.2,3.2,0,0,0,157.71,138.78Z"/><path class="cls-1" d="M167.93,135.91a.7.7,0,0,0-.74-.73.81.81,0,0,0-.83.85.7.7,0,0,0,.74.72A.81.81,0,0,0,167.93,135.91Z"/><polygon class="cls-1" points="164.7 149.39 165.8 149.39 167.27 139.02 166.16 139.02 164.7 149.39"/><path class="cls-1" d="M170.8,149c-.24,1.71-.94,2.75-2.47,2.75a2.52,2.52,0,0,1-.6-.06l0,0-.16,1a4.25,4.25,0,0,0,.84.08c2,0,3.17-1.22,3.49-3.53L173.29,139H172.2Z"/><path class="cls-1" d="M173.23,135.18a.81.81,0,0,0-.83.85.71.71,0,0,0,.75.72.8.8,0,0,0,.82-.84A.7.7,0,0,0,173.23,135.18Z"/><polygon class="cls-1" points="176.94 144.03 182.06 144.03 182.18 143.11 177.08 143.11 176.94 144.03"/><path class="cls-1" d="M198.05,138.78a3.77,3.77,0,0,0-3.67,2.48,2.91,2.91,0,0,0-3.09-2.48,3.71,3.71,0,0,0-3.37,1.88L188,139h-.9l-1.47,10.37h1.11l.92-6.6a3.34,3.34,0,0,1,3.29-3,2.2,2.2,0,0,1,2.35,2.47,9,9,0,0,1-.08,1.44l-.8,5.68h1.1l.84-6c0-.12,0-.26,0-.4a3.37,3.37,0,0,1,3.29-3.23,2.22,2.22,0,0,1,2.39,2.47,8.6,8.6,0,0,1-.1,1.44l-.78,5.68h1.1l.82-6a8,8,0,0,0,.08-1.26C201.22,139.7,199.68,138.78,198.05,138.78Z"/><path class="cls-1" d="M213.93,148.53c-.58,0-.76-.32-.64-1.23l1.18-8.28h-.9l-.18.78a4.7,4.7,0,0,0-3.11-1c-3,0-5.54,2.46-5.54,6.78a3.72,3.72,0,0,0,3.89,4.07,4,4,0,0,0,3.58-1.88c-.16,1.1.16,1.78,1.26,1.78a2.05,2.05,0,0,0,1.13-.34l.14-.94-.06,0A1.14,1.14,0,0,1,213.93,148.53Zm-.84-7.47-.66,4.64a3.61,3.61,0,0,1-3.55,3c-1.85,0-3-1.27-3-3.27,0-3.65,2-5.62,4.39-5.62a3.89,3.89,0,0,1,2.85,1.06Z"/><path class="cls-1" d="M220.2,140.6l.1-1.58h-.91l-1.46,10.37H219l.93-6.54c.74-2.75,2.06-3,3.23-3a2.45,2.45,0,0,1,1,.2l0,0,.14-1a2.4,2.4,0,0,0-1.08-.2A3.32,3.32,0,0,0,220.2,140.6Z"/><polygon class="cls-1" points="234.65 139.02 226.84 139.02 226.72 139.96 233.1 139.96 225.38 148.89 225.44 149.39 233.54 149.39 233.69 148.45 226.92 148.45 234.69 139.52 234.65 139.02"/><path class="cls-1" d="M242.16,138.78c-2.81,0-5.24,2.4-5.24,6.2a4.25,4.25,0,0,0,4.55,4.65,5.39,5.39,0,0,0,3.27-.88l.15-1,0,0a5.11,5.11,0,0,1-3.25,1c-2,0-3.53-1.29-3.53-3.79a5.62,5.62,0,0,1,0-.59h7.77a7.66,7.66,0,0,0,.2-1.64A3.62,3.62,0,0,0,242.16,138.78Zm2.79,4.61H238.2c.48-2.27,2.05-3.63,3.86-3.63a2.67,2.67,0,0,1,2.93,3C245,142.93,245,143.17,245,143.39Z"/><path class="cls-1" d="M254.94,138.78a4.11,4.11,0,0,0-3.65,2l.12-1.76h-.9L249,149.39h1.11l.92-6.6a3.61,3.61,0,0,1,3.55-3,2.44,2.44,0,0,1,2.63,2.73,7,7,0,0,1-.1,1.18l-.78,5.68h1.1l.82-6a6.65,6.65,0,0,0,.08-1.14A3.2,3.2,0,0,0,254.94,138.78Z"/><path class="cls-1" d="M264.42,135.18a.81.81,0,0,0-.83.85.71.71,0,0,0,.75.72.8.8,0,0,0,.82-.84A.7.7,0,0,0,264.42,135.18Z"/><polygon class="cls-1" points="261.93 149.39 263.03 149.39 264.5 139.02 263.39 139.02 261.93 149.39"/><path class="cls-1" d="M276.8,148.53c-.58,0-.76-.32-.64-1.23l1.18-8.28h-.9l-.18.78a4.7,4.7,0,0,0-3.11-1c-3,0-5.54,2.46-5.54,6.78a3.72,3.72,0,0,0,3.89,4.07,4,4,0,0,0,3.57-1.88c-.16,1.1.16,1.78,1.27,1.78a2,2,0,0,0,1.12-.34l.14-.94-.06,0A1.1,1.1,0,0,1,276.8,148.53Zm-.84-7.47-.67,4.64a3.6,3.6,0,0,1-3.55,3c-1.84,0-3-1.27-3-3.27,0-3.65,2-5.62,4.4-5.62a3.89,3.89,0,0,1,2.85,1.06Z"/><path class="cls-1" d="M281.22,147.89a.84.84,0,0,0-.87.86.7.7,0,0,0,.75.72.81.81,0,0,0,.84-.84A.69.69,0,0,0,281.22,147.89Z"/><path class="cls-1" d="M291.71,138.78a4.18,4.18,0,0,0-3.53,1.7l.1-1.46h-.92l-1.93,13.68h1.11l.52-3.77a5.66,5.66,0,0,0,2.91.7c3.21,0,5.64-2.51,5.64-6.66C295.61,140.2,293.94,138.78,291.71,138.78Zm-1.7,9.87a5,5,0,0,1-2.79-.76l.72-5.26a3.63,3.63,0,0,1,3.47-2.87c1.73,0,3,1,3,3.43C294.46,146.56,292.56,148.65,290,148.65Z"/><path class="cls-1" d="M301.79,148.31a1.41,1.41,0,0,1-.78.24c-.78,0-1-.38-.88-1.43l1.68-12h-1.08L299,147.49c-.2,1.4.42,2.06,1.69,2.06a2.28,2.28,0,0,0,1-.26l.14-1Z"/></g></g></svg>